<?xml version="1.0" encoding="UTF-8"?>
<svg width="752pt" height="752pt" version="1.1" viewBox="0 0 752 752" xmlns="http://www.w3.org/2000/svg">

 <g>
  <path d="m376 277.45c-54.367 0-98.551 44.184-98.551 98.551s44.184 98.551 98.551 98.551 98.551-44.184 98.551-98.551c0.003907-54.367-44.184-98.551-98.551-98.551zm0 178.92v-160.73c44.281 0 80.367 36.086 80.367 80.367s-36.086 80.367-80.367 80.367z" style="fill: rgb(102, 255, 219);"/>
  <path d="m376 197.13c-5.0195 0-9.0938 4.0742-9.0938 9.0938v45.797c0 5.0195 4.0742 9.0938 9.0938 9.0938s9.0938-4.0742 9.0938-9.0938v-45.797c0-5.0195-4.0742-9.0938-9.0938-9.0938z" style="fill: rgb(102, 255, 219);"/>
  <path d="m281.9 294.73c1.7539 1.7539 4.1211 2.6523 6.4414 2.6523s4.6406-0.89844 6.4414-2.6523c3.5508-3.5508 3.5508-9.3281 0-12.836l-32.441-32.391c-3.5508-3.5508-9.2812-3.5508-12.836 0-3.5508 3.5508-3.5508 9.3281 0 12.836z" style="fill: rgb(102, 255, 219);"/>
  <path d="m261.06 376c0-5.0195-4.0742-9.0938-9.0938-9.0938h-45.797c-5.0195 0-9.0938 4.0742-9.0938 9.0938s4.0742 9.0938 9.0938 9.0938h45.797c5.0703 0 9.0938-4.0742 9.0938-9.0938z" style="fill: rgb(102, 255, 219);"/>
  <path d="m281.9 457.27-32.395 32.391c-3.5508 3.5508-3.5508 9.2812 0 12.836 1.7539 1.7539 4.1211 2.6523 6.4414 2.6523 2.3203 0 4.6406-0.89844 6.4414-2.6523l32.395-32.395c3.5508-3.5508 3.5508-9.2812 0-12.836-3.6016-3.5508-9.332-3.5508-12.883 0.003906z" style="fill: rgb(102, 255, 219);"/>
  <path d="m376 490.94c-5.0195 0-9.0938 4.0742-9.0938 9.0938v45.797c0 5.0195 4.0742 9.0938 9.0938 9.0938s9.0938-4.0742 9.0938-9.0938v-45.797c0-5.0703-4.0742-9.0938-9.0938-9.0938z" style="fill: rgb(102, 255, 219);"/>
  <path d="m470.1 457.27c-3.5508-3.5508-9.2812-3.5508-12.836 0-3.5508 3.5508-3.5508 9.2812 0 12.836l32.395 32.391c1.7539 1.7539 4.1211 2.6523 6.4414 2.6523 2.3203 0 4.6406-0.89844 6.4414-2.6523 3.5508-3.5508 3.5508-9.2812 0-12.836z" style="fill: rgb(102, 255, 219);"/>
  <path d="m545.78 366.91h-45.797c-5.0195 0-9.0938 4.0742-9.0938 9.0938 0 5.0195 4.0742 9.0938 9.0938 9.0938h45.797c5.0195 0 9.0938-4.0742 9.0938-9.0938-0.003906-5.0234-4.0742-9.0938-9.0938-9.0938z" style="fill: rgb(102, 255, 219);"/>
  <path d="m463.71 297.39c2.3203 0 4.6406-0.89844 6.4414-2.6523l32.395-32.395c3.5508-3.5508 3.5508-9.2812 0-12.836-3.5508-3.5508-9.2812-3.5508-12.836 0l-32.395 32.395c-3.5508 3.5508-3.5508 9.2812 0 12.836 1.707 1.8008 4.0742 2.6523 6.3945 2.6523z" style="fill: rgb(102, 255, 219);"/>
 </g>
</svg>
