<?xml version="1.0" encoding="UTF-8"?>
<svg width="752pt" height="752pt" version="1.1" viewBox="0 0 752 752" xmlns="http://www.w3.org/2000/svg">
 <g>
  <path d="m389.26 380.74c0-61.094 33.152-114.13 82.875-142.07-24.625-13.734-52.566-21.312-82.875-21.312-94.242 0-170.49 76.246-170.49 170.49 0 94.242 76.246 170.49 170.49 170.49 35.047 0 67.723-10.418 94.715-28.887-55.883-26.047-94.715-82.875-94.715-148.7z" style="fill: rgb(117, 1, 206);"/>
  <path d="m519.02 379.32-43.098 27.469 12.789-49.254-38.836-32.203 50.199-3.3164 18.945-46.883 18.469 46.883 50.672 3.3164-39.305 32.203 12.785 49.254z" style="fill: rgb(117, 1, 206);"/>
  <path d="m200.78 245.77-21.312 13.262 6.6289-24.152-19.891-16.102 25.574-1.8945 9-23.207 9.4727 23.207 25.098 1.8945-19.418 16.102 6.6328 24.152z" style="fill: rgb(117, 1, 206);"/>
  <path d="m197.93 545.07-20.836 13.262 6.1562-23.68-19.418-16.102 25.102-1.4219 8.9961-22.73 9 22.73 24.625 1.4219-18.941 16.102 6.1562 23.68z" style="fill: rgb(117, 1, 206);"/>
 </g>
</svg>