<?xml version="1.0" standalone="no"?>
<!DOCTYPE svg PUBLIC "-//W3C//DTD SVG 20010904//EN"
 "http://www.w3.org/TR/2001/REC-SVG-20010904/DTD/svg10.dtd">
<svg version="1.0" xmlns="http://www.w3.org/2000/svg"
 width="1200.000000pt" height="1200.000000pt" viewBox="0 0 1200.000000 1200.000000"
 preserveAspectRatio="xMidYMid meet">

<g transform="translate(0.000000,1200.000000) scale(0.100000,-0.100000)"
fill="#0b1a2e" stroke="#64ffda" stroke-width="200" >
<path d="M0 6000 l0 -6000 6000 0 6000 0 0 6000 0 6000 -6000 0 -6000 0 0
-6000z m6813 4838 c441 -359 1511 -1228 2378 -1933 866 -704 1594 -1296 1617
-1315 l41 -35 -48 -57 -48 -57 -299 243 c-165 133 -864 701 -1554 1262 -690
560 -1625 1320 -2077 1687 l-823 668 -502 -408 c-277 -224 -1068 -866 -1758
-1427 -1328 -1080 -2468 -2004 -2485 -2016 -5 -4 -31 18 -57 50 l-47 57 702
571 c386 314 1294 1052 2017 1639 723 588 1495 1216 1715 1395 220 180 406
327 413 327 7 1 374 -292 815 -651z m276 -2164 c67 -19 141 -90 159 -150 9
-30 12 -170 12 -513 l0 -471 -60 0 -60 0 0 465 c0 394 -2 470 -15 495 -33 64
47 60 -1125 60 -1172 0 -1092 4 -1125 -60 -12 -24 -15 -81 -15 -315 l0 -285
-60 0 -60 0 0 291 c0 201 4 305 12 333 17 58 92 131 154 150 42 12 197 15
1090 15 919 1 1047 -1 1093 -15z m-106 -235 c12 -7 25 -17 29 -23 4 -6 8 -206
8 -443 l0 -433 -60 0 -60 0 0 390 0 390 -900 0 -900 0 0 -210 0 -210 -60 0
-60 0 0 255 c0 242 1 256 20 275 20 20 33 20 991 20 712 0 976 -3 992 -11z
m-1156 -615 c15 -11 34 -32 40 -45 18 -35 18 -1513 0 -1548 -6 -13 -25 -34
-40 -45 -28 -21 -37 -21 -615 -24 -396 -2 -599 0 -624 8 -20 6 -48 24 -62 41
l-26 31 0 762 0 763 22 28 c43 55 33 55 680 52 588 -2 597 -2 625 -23z m1620
-360 c54 -40 53 -26 53 -639 0 -613 1 -599 -53 -639 -27 -20 -41 -21 -375 -24
-228 -2 -360 1 -384 8 -20 6 -48 24 -62 41 l-26 31 0 582 c0 583 0 583 22 611
42 54 52 55 440 52 345 -2 358 -3 385 -23z m-907 -519 l0 -65 -300 0 -300 0 0
65 0 65 300 0 300 0 0 -65z m0 -180 l0 -65 -90 0 c-89 0 -90 0 -90 -25 0 -25
1 -25 90 -25 l90 0 0 -65 0 -65 -150 0 -150 0 0 155 0 155 150 0 150 0 0 -65z
m0 -360 l0 -65 -300 0 -300 0 0 65 0 65 300 0 300 0 0 -65z m-3190 -1255 l0
-60 -70 0 -70 0 0 -310 0 -310 70 0 70 0 0 -60 0 -60 -210 0 -210 0 0 60 0 60
70 0 70 0 0 310 0 310 -70 0 -70 0 0 60 0 60 210 0 210 0 0 -60z m2960 -65 l0
-125 125 0 c69 0 125 -3 126 -7 0 -5 2 -32 3 -60 l1 -53 -128 0 -128 0 3 -171
c3 -166 4 -171 27 -190 35 -28 70 -34 114 -18 36 13 64 45 80 93 2 6 24 5 61
-3 58 -13 58 -13 52 -44 -19 -95 -101 -165 -206 -174 -79 -8 -140 11 -194 58
-65 58 -76 99 -76 291 l0 158 -70 0 -70 0 0 60 0 60 70 0 70 0 0 125 0 125 70
0 70 0 0 -125z m690 -67 l0 -191 23 44 c34 64 93 102 166 107 32 2 75 -1 94
-7 45 -15 103 -78 116 -128 6 -22 11 -136 11 -265 l0 -228 -70 0 -70 0 0 224
c0 219 -1 226 -23 251 -54 63 -170 31 -217 -60 -24 -47 -25 -60 -28 -232 l-4
-183 -69 0 -69 0 0 430 0 430 70 0 70 0 0 -192z m-2919 -65 c59 -27 118 -85
149 -148 21 -43 25 -64 25 -150 0 -117 -18 -168 -82 -232 -67 -67 -123 -88
-233 -88 -84 0 -102 3 -152 28 -107 52 -159 137 -166 267 -5 98 6 147 47 211
36 57 87 97 154 121 69 25 193 20 258 -9z m812 13 c43 -17 93 -76 106 -123 6
-21 11 -138 11 -265 l0 -228 -70 0 -70 0 0 224 c0 219 -1 226 -23 251 -54 63
-170 31 -217 -60 -24 -47 -25 -60 -28 -232 l-4 -183 -69 0 -69 0 0 305 0 305
70 0 70 0 0 -67 0 -68 21 43 c22 44 64 83 109 101 37 14 126 13 163 -3z m746
3 c66 -14 128 -60 152 -112 16 -37 19 -68 19 -274 l0 -233 -70 0 -70 0 0 36 0
36 -35 -31 c-19 -16 -58 -37 -87 -46 -172 -51 -318 29 -318 174 0 61 16 97 64
138 62 55 136 77 263 77 l113 1 0 33 c0 93 -155 119 -309 51 -24 -11 -45 -18
-46 -17 -2 2 -14 26 -28 54 l-26 52 52 23 c107 47 223 60 326 38z m2400 0 c66
-14 128 -60 152 -112 16 -37 19 -68 19 -274 l0 -233 -70 0 -70 0 0 36 0 36
-35 -31 c-19 -16 -58 -37 -87 -46 -172 -51 -318 29 -318 174 0 61 16 97 64
138 62 55 136 77 263 77 l113 1 0 33 c0 93 -155 119 -309 51 -24 -11 -45 -18
-46 -17 -2 2 -14 26 -28 54 l-26 52 52 23 c107 47 223 60 326 38z m854 -3 c43
-17 93 -76 106 -123 6 -21 11 -138 11 -265 l0 -228 -70 0 -70 0 0 224 c0 219
-1 226 -23 251 -54 63 -170 31 -217 -60 -24 -47 -25 -60 -28 -232 l-4 -183
-69 0 -69 0 0 305 0 305 70 0 70 0 0 -67 0 -68 21 43 c22 44 64 83 109 101 37
14 126 13 163 -3z m-6983 -907 c355 -288 1135 -922 1735 -1409 600 -487 1171
-951 1270 -1032 99 -80 383 -311 630 -512 248 -201 452 -366 455 -366 3 0 388
311 855 691 468 380 1407 1144 2089 1698 681 553 1367 1110 1524 1238 l285
231 43 -53 c24 -30 44 -58 44 -63 0 -5 -127 -112 -282 -239 -156 -126 -1041
-845 -1968 -1598 -927 -753 -1889 -1534 -2138 -1736 l-452 -368 -453 368
c-423 344 -2148 1746 -3704 3010 -376 305 -683 558 -683 563 0 18 85 115 95
108 6 -4 300 -243 655 -531z"/>
<path d="M4620 7005 l0 -715 570 0 570 0 0 715 0 715 -570 0 -570 0 0 -715z
m1043 654 c12 -7 25 -17 29 -23 4 -6 8 -263 8 -571 0 -308 -4 -565 -8 -571
-21 -32 -53 -34 -502 -34 -449 0 -481 2 -502 34 -4 6 -8 264 -8 574 0 549 0
562 20 582 19 19 33 20 481 20 327 0 467 -3 482 -11z m-448 -1231 c46 -21 46
-85 0 -106 -31 -14 -72 1 -81 30 -12 39 8 72 53 87 1 1 14 -4 28 -11z"/>
<path d="M4800 7065 l0 -475 390 0 390 0 0 475 0 475 -390 0 -390 0 0 -475z"/>
<path d="M6720 6825 l0 -535 330 0 330 0 0 535 0 535 -330 0 -330 0 0 -535z
m563 474 c12 -7 25 -17 29 -23 4 -6 8 -182 8 -391 0 -209 -4 -385 -8 -391 -19
-29 -55 -34 -262 -34 -207 0 -243 5 -262 34 -4 6 -8 183 -8 394 0 369 1 383
20 402 19 19 33 20 241 20 147 0 228 -4 242 -11z m-208 -871 c46 -21 46 -85 0
-106 -31 -14 -72 1 -81 30 -12 39 8 72 53 87 1 1 14 -4 28 -11z"/>
<path d="M6900 6885 l0 -295 150 0 150 0 0 295 0 295 -150 0 -150 0 0 -295z"/>
<path d="M3864 4841 c-81 -37 -123 -130 -104 -231 12 -64 21 -80 64 -118 61
-53 163 -53 231 0 82 64 87 251 9 320 -29 25 -89 48 -126 48 -18 0 -52 -9 -74
-19z"/>
<path d="M5457 4616 c-60 -17 -90 -45 -90 -86 0 -42 29 -68 84 -76 106 -14
219 53 219 130 0 26 -5 35 -22 40 -38 10 -140 5 -191 -8z"/>
<path d="M7857 4616 c-60 -17 -90 -45 -90 -86 0 -42 29 -68 84 -76 106 -14
219 53 219 130 0 26 -5 35 -22 40 -38 10 -140 5 -191 -8z"/>
</g>
</svg>
